# xmcd
#
# Track frame offsets:
#	183
#	16230
#	39798
#	61593
#	84643
#	120678
#	139710
#	162793
#	176860
#	211735
#	230725
#	246938
#
# Disc length: 3557 seconds
#
# Revision: 3
# Processed by: cddbd v1.5.2PL0 Copyright (c) Steve Scherf et al.
# Submitted via: EasyCDDAExtractor 15.3.0.1
#
DISCID=960de30c
DTITLE=Louis Armstrong - Jazz Trumpet - Louis Armstrong
DYEAR=1900
DGENRE=Blues
TTITLE0=When It's Sleepy Time Down South
TTITLE1=Struttin' With Some Barbecue
TTITLE2=The Gypsy
TTITLE3=Do You Know What It Means To Miss New-Orleans?
TTITLE4=Basin Street Blues
TTITLE5=Tiger Rag
TTITLE6=Now You Has Jazz
TTITLE7=High Society Calypso
TTITLE8=St. Louis Blues
TTITLE9=Blueberry Hill
TTITLE10=Muskrat Ramble
TTITLE11=When The Saints Go Marching In - Hello Dolly
EXTD=
EXTT0=
EXTT1=
EXTT2=
EXTT3=
EXTT4=
EXTT5=
EXTT6=
EXTT7=
EXTT8=
EXTT9=
EXTT10=
EXTT11=
PLAYORDER=
